<svg xmlns="http://www.w3.org/2000/svg" viewBox="0 0 1600 1000" role="img" aria-label="Paisaje satelital estilizado con parcelas, agua y nubes">
  <defs>
    <linearGradient id="sky" x1="0" x2="1" y1="0" y2="1">
      <stop offset="0" stop-color="#cfe9ea"/>
      <stop offset=".52" stop-color="#f2d889"/>
      <stop offset="1" stop-color="#4a825f"/>
    </linearGradient>
    <filter id="soft">
      <feGaussianBlur stdDeviation="14"/>
    </filter>
  </defs>
  <rect width="1600" height="1000" fill="url(#sky)"/>
  <path d="M0 580 C250 470 390 645 635 520 C865 402 1040 530 1600 390 L1600 1000 L0 1000 Z" fill="#3e7b58"/>
  <path d="M0 705 C260 600 450 690 690 615 C935 540 1170 622 1600 510 L1600 1000 L0 1000 Z" fill="#245f48"/>
  <path d="M1035 0 L1600 0 L1600 1000 L1235 1000 Z" fill="#0a6271" opacity=".72"/>
  <path d="M1110 0 L1200 0 L1390 1000 L1300 1000 Z" fill="#f5cf69" opacity=".55"/>
  <g opacity=".78">
    <path d="M80 760 L372 680 L425 870 L110 940 Z" fill="#b87a3e"/>
    <path d="M404 674 L710 620 L735 820 L462 870 Z" fill="#6d9b52"/>
    <path d="M758 615 L1008 585 L1052 787 L790 820 Z" fill="#d0a449"/>
    <path d="M110 944 L426 874 L485 1000 L90 1000 Z" fill="#5a8f53"/>
    <path d="M465 878 L737 826 L776 1000 L510 1000 Z" fill="#9b6a3d"/>
    <path d="M794 824 L1055 790 L1108 1000 L830 1000 Z" fill="#4f8851"/>
  </g>
  <g fill="none" stroke="#f8faf7" stroke-width="5" opacity=".34">
    <path d="M62 765 L1035 585"/>
    <path d="M108 942 L1054 790"/>
    <path d="M373 680 L510 1000"/>
    <path d="M710 620 L830 1000"/>
    <path d="M1008 585 L1108 1000"/>
  </g>
  <g opacity=".62" filter="url(#soft)">
    <ellipse cx="230" cy="165" rx="155" ry="42" fill="#fff"/>
    <ellipse cx="340" cy="145" rx="120" ry="36" fill="#fff"/>
    <ellipse cx="1130" cy="235" rx="190" ry="50" fill="#fff"/>
    <ellipse cx="1280" cy="208" rx="125" ry="38" fill="#fff"/>
  </g>
  <g transform="translate(1170 88) rotate(-16)">
    <rect x="0" y="0" width="150" height="54" rx="7" fill="#eaf1ed"/>
    <rect x="-120" y="10" width="110" height="34" rx="4" fill="#28463d"/>
    <rect x="160" y="10" width="110" height="34" rx="4" fill="#28463d"/>
    <circle cx="75" cy="27" r="14" fill="#0d6b78"/>
  </g>
</svg>
